HIERARCHY
ROOT hip
{
	OFFSET	0.00  0.00  0.00 
	CHANNELS 6 Xposition Yposition Zposition Xrotation Zrotation Yrotation
	JOINT abdomen
	{
		OFFSET	0.000000 0.000000 0.000000
		CHANNELS 3 Xrotation Zrotation Yrotation
		JOINT chest
		{
			OFFSET	0.000000 5.018152 -1.882228
			CHANNELS 3 Xrotation Zrotation Yrotation
			JOINT neckDummy
			{
				OFFSET	0.000000 8.316447 0.784897
				CHANNELS 3 Xrotation Yrotation Zrotation
				JOINT neck
				{
					OFFSET	0.000000 2.280413 -0.392801
					CHANNELS 3 Xrotation Zrotation Yrotation
					JOINT head
					{
						OFFSET	0.000000 3.496879 0.529469
						CHANNELS 3 Xrotation Zrotation Yrotation
						JOINT figureHair
						{
							OFFSET	0.000000 4.699570 0.720622
							CHANNELS 3 Zrotation Yrotation Xrotation
							End Site
							{
								OFFSET 0.000000 -6.419331 0.000000
							}
						}
					}
				}
			}
			JOINT lCollar
			{
				OFFSET	0.599237 8.316447 0.784897
				CHANNELS 3 Yrotation Zrotation Xrotation
				JOINT lShldr
				{
					OFFSET	6.421198 0.010146 -0.332128
					CHANNELS 3 Zrotation Yrotation Xrotation
					JOINT lForeArm
					{
						OFFSET	10.552783 0.025574 0.125508
						CHANNELS 3 Yrotation Zrotation Xrotation
						JOINT lHand
						{
							OFFSET	11.035963 0.319619 0.041520
							CHANNELS 3 Zrotation Yrotation Xrotation
							End Site
							{
								OFFSET 10.353753 0.000000 0.000000
							}
						}
					}
				}
			}
			JOINT rCollar
			{
				OFFSET	-0.599237 8.316447 0.784897
				CHANNELS 3 Yrotation Zrotation Xrotation
				JOINT rShldr
				{
					OFFSET	-6.421198 0.010146 -0.332128
					CHANNELS 3 Zrotation Yrotation Xrotation
					JOINT rForeArm
					{
						OFFSET	-10.552783 0.025574 0.125508
						CHANNELS 3 Yrotation Zrotation Xrotation
						JOINT rHand
						{
							OFFSET	-11.035963 0.319619 0.041520
							CHANNELS 3 Zrotation Yrotation Xrotation
							End Site
							{
								OFFSET -10.353753 0.000000 0.000000
							}
						}
					}
				}
			}
		}
	}
	JOINT lThigh
	{
		OFFSET	4.500466 -6.400484 -1.832696
		CHANNELS 3 Xrotation Zrotation Yrotation
		JOINT lShin
		{
			OFFSET	-1.359117 -18.918689 1.179887
			CHANNELS 3 Xrotation Zrotation Yrotation
			JOINT lFoot
			{
				OFFSET	-0.652380 -17.215186 -0.312137
				CHANNELS 3 Xrotation Yrotation Zrotation
				End Site
				{
					OFFSET 0.000000 0.000000 10.353752
				}
			}
		}
	}
	JOINT rThigh
	{
		OFFSET	-4.500466 -6.400484 -1.832696
		CHANNELS 3 Xrotation Zrotation Yrotation
		JOINT rShin
		{
			OFFSET	1.359117 -18.918689 1.179887
			CHANNELS 3 Xrotation Zrotation Yrotation
			JOINT rFoot
			{
				OFFSET	0.652380 -17.215186 -0.312137
				CHANNELS 3 Xrotation Yrotation Zrotation
				End Site
				{
					OFFSET 0.000000 0.000000 10.353752
				}
			}
		}
	}
}
MOTION
Frames:     17
Frame Time: 0.125000
-0.411343 53.129768 14.482456 0.000000 0.000000 0.000000 -4.000000 0.000000 0.000000 -4.000000 0.000000 0.000000 0.000000 0.000000 0.000000 0.000000 0.000000 0.000000 -27.722099 0.950361 -0.541448 0.000000 0.000000 0.000000 16.000000 8.000000 -25.000000 -25.000000 -79.000000 0.000000 -21.000000 53.000000 -60.000000 5.969490 -0.173112 0.175734 -15.826800 8.236880 -25.000000 14.000000 92.000000 2.000000 26.515598 -52.696301 -59.852299 -5.969490 0.173112 0.175734 9.232900 3.956660 -0.045907 11.032300 -4.819930 -0.378621 44.226101 -1.165290 -2.485290 8.203500 -3.306160 0.634632 5.741920 0.949321 -0.494335 44.237000 0.379722 2.267420 
-0.411343 53.129768 14.482456 0.000000 0.000000 0.000000 -3.757067 0.000000 0.000000 -3.618044 0.000000 0.000000 0.000000 0.000000 0.000000 0.000000 0.000000 0.000000 -28.298830 0.950361 -0.541448 0.000000 0.000000 0.000000 15.739942 7.715636 -23.198488 -25.949471 -79.476273 -0.405008 -24.039131 51.444214 -59.762875 5.969490 -0.173112 0.175734 -15.826800 8.236880 -22.518366 14.637451 91.128754 1.811274 28.508795 -50.310131 -58.703396 -5.969490 0.173112 0.175734 9.022855 3.919954 -0.034218 10.789134 -4.819930 -0.378621 44.226101 -1.165290 -2.485290 8.324545 -3.083372 0.610114 7.304732 0.949321 -0.494335 43.187450 0.544679 2.246965 
-0.411343 53.129768 14.482456 0.000000 0.000000 0.000000 -3.590046 0.000000 0.000000 -3.140387 0.000000 0.000000 0.000000 0.000000 0.000000 0.000000 0.000000 0.000000 -29.587498 0.950361 -0.541448 0.000000 0.000000 0.000000 15.433039 7.380049 -21.072466 -26.874874 -80.408112 -1.034108 -27.844534 50.126369 -60.244797 5.969490 -0.173112 0.175734 -15.826800 8.236880 -19.444082 15.404147 90.121513 1.577478 30.989521 -47.515030 -57.489746 -5.969490 0.173112 0.175734 8.802496 3.876796 -0.018782 10.335273 -4.819930 -0.378621 44.226101 -1.165290 -2.485290 8.483122 -2.801462 0.577735 9.266238 0.949321 -0.494335 41.801407 0.762523 2.219953 
-0.411343 53.129768 14.482456 0.000000 0.000000 0.000000 -3.500844 0.000000 0.000000 -2.618723 0.000000 0.000000 0.000000 0.000000 0.000000 0.000000 0.000000 0.000000 -31.381554 0.950361 -0.541448 0.000000 0.000000 0.000000 15.110341 7.027192 -18.837027 -27.707026 -81.654907 -1.804719 -32.003796 49.114880 -61.301586 5.969490 -0.173112 0.175734 -15.826800 8.236880 -16.106421 16.220713 89.077560 1.323652 33.690701 -44.591160 -56.316315 -5.969490 0.173112 0.175734 8.549374 3.830803 -0.003495 9.737539 -4.819930 -0.378621 44.226101 -1.165290 -2.485290 8.640941 -2.514756 0.545671 11.271355 0.949321 -0.494335 40.428806 0.978252 2.193202 
-0.411343 53.129772 14.482456 0.000000 0.000000 0.000000 -3.407322 0.000000 0.000000 -2.078685 0.000000 0.000000 0.000000 0.000000 0.000000 0.000000 0.000000 0.000000 -33.233913 0.950361 -0.541448 0.000000 0.000000 0.000000 14.776121 6.661733 -16.521757 -28.570747 -82.942734 -2.601417 -36.309525 48.062351 -62.388897 5.969491 -0.173112 0.175734 -15.826802 8.236880 -12.650947 17.066305 87.996147 1.060867 36.487129 -41.562679 -55.099632 -5.969491 0.173112 0.175734 8.194038 3.781525 0.007530 9.120043 -4.819931 -0.378621 44.226109 -1.165290 -2.485291 8.758629 -2.270699 0.522546 13.027573 0.949321 -0.494335 39.438896 1.133836 2.173910 
-0.411343 53.129772 14.482458 0.000000 0.000000 0.000000 -3.227340 0.000000 0.000000 -1.545905 0.000000 0.000000 0.000000 0.000000 0.000000 0.000000 0.000000 0.000000 -34.697487 0.950361 -0.541448 0.000000 0.000000 0.000000 14.434648 6.288343 -14.156240 -29.590857 -83.997635 -3.308776 -40.554310 46.621387 -62.962364 5.969492 -0.173112 0.175734 -15.826803 8.236881 -9.223224 17.920076 86.876488 0.800193 39.253597 -38.453735 -53.756226 -5.969491 0.173112 0.175734 7.667040 3.728512 0.010180 8.606893 -4.819931 -0.378621 44.226112 -1.165290 -2.485291 8.796809 -2.116735 0.516987 14.242378 0.949321 -0.494335 39.200897 1.171242 2.169272 
-0.411343 53.129772 14.482458 0.000000 0.000000 0.000000 -2.878756 0.000000 0.000000 -1.046014 0.000000 0.000000 0.000000 0.000000 0.000000 0.000000 0.000000 0.000000 -35.325180 0.950361 -0.541448 0.000000 0.000000 0.000000 14.090189 5.911692 -11.770061 -30.892172 -84.545639 -3.811369 -44.530746 44.444599 -62.477638 5.969492 -0.173112 0.175734 -15.826803 8.236881 -5.968817 18.761175 85.717812 0.552699 41.864887 -35.288483 -52.202610 -5.969491 0.173112 0.175734 6.881345 3.678918 0.001896 8.322197 -4.819931 -0.378621 44.226112 -1.165290 -2.485291 8.678894 -2.089748 0.534363 14.729542 0.949321 -0.494335 39.944744 1.054332 2.183769 
-0.411343 53.129772 14.482456 0.000000 0.000000 0.000000 -2.279431 0.000000 0.000000 -0.604645 0.000000 0.000000 0.000000 0.000000 0.000000 0.000000 0.000000 0.000000 -34.669903 0.950361 -0.541448 0.000000 0.000000 0.000000 13.747015 5.536447 -9.392802 -32.599514 -84.312798 -3.993773 -48.031437 41.184597 -60.390366 5.969491 -0.173112 0.175734 -15.826803 8.236880 -3.033287 19.568758 84.519348 0.329455 44.195786 -32.091061 -50.355301 -5.969491 0.173112 0.175734 5.679591 3.670302 -0.013678 8.390063 -4.819931 -0.378621 44.226109 -1.165290 -2.485291 8.179448 -2.184386 0.567030 14.727980 0.949321 -0.494335 41.343121 0.834549 2.211022 
-0.411343 53.129772 14.482456 0.000000 0.000000 0.000000 -1.347226 0.000000 0.000000 -0.247429 0.000000 0.000000 0.000000 0.000000 0.000000 0.000000 0.000000 0.000000 -32.284573 0.950361 -0.541448 0.000000 0.000000 0.000000 13.409396 5.167281 -7.054052 -34.837711 -83.025185 -3.740559 -50.848984 36.493988 -56.156204 5.969491 -0.173112 0.175734 -15.826802 8.236880 -0.562203 20.321983 83.280334 0.141532 46.121094 -28.885616 -48.130825 -5.969491 0.173112 0.175734 3.886836 3.747829 -0.031344 8.934601 -4.819931 -0.378621 44.226105 -1.165290 -2.485290 7.035823 -2.384732 0.604086 14.582895 0.949321 -0.494335 42.929417 0.585233 2.241937 
-0.411343 53.129768 14.482456 0.000000 0.000000 0.000000 0.000000 0.000000 0.000000 0.000000 0.000000 0.000000 0.000000 0.000000 0.000000 0.000000 0.000000 0.000000 -27.722099 0.950361 -0.541448 0.000000 0.000000 0.000000 13.081604 4.808863 -4.783398 -37.731567 -80.408867 -2.936303 -52.775974 30.025385 -49.230797 5.969490 -0.173112 0.175734 -15.826800 8.236880 1.298870 21.000000 82.000000 0.000000 47.515598 -25.696301 -45.445702 -5.969490 0.173112 0.175734 1.328136 3.956660 -0.045907 10.079918 -4.819930 -0.378621 44.226101 -1.165290 -2.485290 4.985371 -2.674874 0.634632 14.639490 0.949321 -0.494335 44.237000 0.379722 2.267420 
-0.411343 53.129768 14.482456 0.000000 0.000000 0.000000 1.789695 0.000000 0.000000 0.122465 0.000000 0.000000 0.000000 0.000000 0.000000 0.000000 0.000000 0.000000 -20.808334 0.950361 -0.541448 0.000000 0.000000 0.000000 12.770083 4.468241 -2.625476 -41.306675 -76.359421 -1.532703 -53.682789 21.686138 -39.427151 5.969490 -0.173112 0.175734 -15.826799 8.236880 2.450589 21.597301 80.653633 -0.087587 48.291824 -22.478579 -42.163483 -5.969490 0.173112 0.175734 -2.056969 4.331109 -0.053414 11.883182 -4.819929 -0.378621 44.226101 -1.165290 -2.485290 1.887568 -3.042022 0.650378 15.194188 0.949321 -0.494335 44.911041 0.273784 2.280557 
-0.411343 53.129768 14.482458 0.000000 0.000000 0.000000 3.830546 0.000000 0.000000 0.146605 0.000000 0.000000 0.000000 0.000000 0.000000 0.000000 0.000000 0.000000 -12.460898 0.950361 -0.541448 0.000000 0.000000 0.000000 12.489972 4.161963 -0.685132 -45.191673 -71.450569 0.250045 -53.750912 12.402561 -27.987701 5.969490 -0.173112 0.175734 -15.826800 8.236880 2.978508 22.169727 79.120613 -0.127734 48.513199 -18.913164 -37.935787 -5.969491 0.173112 0.175734 -5.871002 4.862085 -0.054894 14.133789 -4.819929 -0.378621 44.226105 -1.165290 -2.485290 -1.909613 -3.485888 0.653482 16.348295 0.949321 -0.494335 45.043907 0.252901 2.283146 
-0.411343 53.129768 14.482458 0.000000 0.000000 0.000000 5.876549 0.000000 0.000000 0.109512 0.000000 0.000000 0.000000 0.000000 0.000000 0.000000 0.000000 0.000000 -3.870343 0.950361 -0.541448 0.000000 0.000000 0.000000 12.258579 3.908953 0.917743 -48.915955 -66.425552 2.124623 -53.239582 3.355692 -16.512218 5.969489 -0.173112 0.175734 -15.826799 8.236880 3.014402 22.788452 77.256348 -0.130464 48.280865 -14.612072 -32.361244 -5.969491 0.173112 0.175734 -9.602006 5.529645 -0.052620 16.554193 -4.819930 -0.378621 44.226105 -1.165290 -2.485290 -5.936080 -4.009308 0.648713 18.154341 0.949321 -0.494335 44.839748 0.284989 2.279168 
-0.411343 53.129768 14.482456 0.000000 0.000000 0.000000 7.681703 0.000000 0.000000 0.048280 0.000000 0.000000 0.000000 0.000000 0.000000 0.000000 0.000000 0.000000 3.772781 0.950361 -0.541448 0.000000 0.000000 0.000000 12.093217 3.728137 2.063256 -52.008930 -62.027611 3.803716 -52.408058 -4.273430 -6.600473 5.969490 -0.173112 0.175734 -15.826800 8.236881 2.690047 23.524654 74.916237 -0.105797 47.695972 -9.187320 -25.038485 -5.969490 0.173112 0.175734 -12.738028 6.313849 -0.048867 18.866852 -4.819930 -0.378621 44.226101 -1.165290 -2.485290 -9.721743 -4.615120 0.640840 20.664856 0.949321 -0.494335 44.502724 0.337958 2.272599 
-0.411343 53.129768 14.482456 0.000000 0.000000 0.000000 9.000000 0.000000 0.000000 0.000000 0.000000 0.000000 0.000000 0.000000 0.000000 0.000000 0.000000 0.000000 9.277900 0.950361 -0.541448 0.000000 0.000000 0.000000 12.011200 3.638440 2.631510 -54.000000 -59.000000 5.000000 -51.515598 -9.303740 0.147736 5.969490 -0.173112 0.175734 -15.826801 8.236881 2.137221 24.449511 71.955711 -0.063756 46.859680 -2.250940 -15.566158 -5.969491 0.173112 0.175734 -14.767101 7.194755 -0.045907 20.794216 -4.819930 -0.378621 44.226101 -1.165290 -2.485290 -12.796500 -5.306160 0.634632 23.932365 0.949321 -0.494335 44.237000 0.379722 2.267420 
-0.411343 53.129768 14.482456 0.000000 0.000000 0.000000 9.660919 0.000000 0.000000 -0.009568 0.000000 0.000000 0.000000 0.000000 0.000000 0.000000 0.000000 0.000000 11.843776 0.950361 -0.541448 0.000000 0.000000 0.000000 12.014796 3.642342 2.606788 -54.632744 -57.806587 5.523713 -50.810318 -11.058930 2.756091 5.969490 -0.173112 0.175734 -15.826800 8.236880 1.512175 25.532625 68.530403 -0.016222 45.924877 5.853591 -4.515068 -5.969490 0.173112 0.175734 -15.325411 8.120432 -0.045321 22.132517 -4.819930 -0.378621 44.226101 -1.165290 -2.485290 -14.753985 -6.034010 0.633402 27.784359 0.949321 -0.494335 44.184345 0.387998 2.266394 
-0.411343 53.129768 14.482456 0.000000 0.000000 0.000000 9.795850 0.000000 0.000000 0.000000 0.000000 0.000000 0.000000 0.000000 0.000000 0.000000 0.000000 0.000000 12.226400 0.950361 -0.541448 0.000000 0.000000 0.000000 12.046100 3.676550 2.390070 -54.507500 -57.793800 5.575300 -50.495800 -10.881600 2.742010 5.969490 -0.173112 0.175734 -15.826800 8.236880 1.069070 26.337299 65.996902 0.017476 45.251400 11.856900 3.655160 -5.969490 0.173112 0.175734 -14.641693 8.910989 -0.045907 22.973066 -4.819930 -0.378621 44.226101 -1.165290 -2.485290 -15.442700 -6.545230 0.634632 31.148144 0.949321 -0.494335 44.237000 0.379722 2.267420 
